<svg width="148px" height="148px" viewBox="-2.4 -2.4 28.80 28.80" fill="none" xmlns="http://www.w3.org/2000/svg" stroke="#ffffff" transform="matrix(-1, 0, 0, 1, 0, 0)rotate(0)"><g id="SVGRepo_bgCarrier" stroke-width="0"></g><g id="SVGRepo_tracerCarrier" stroke-linecap="round" stroke-linejoin="round" stroke="#CCCCCC" stroke-width="4.8"> <path d="M7.40418 21.1847H11.7207M16.0373 21.1847H11.7207M11.7207 21.1847V15.4293M11.7207 15.4293C9.80226 15.4293 5.96533 14.2782 5.96533 9.67389M11.7207 15.4293C13.6392 15.4293 17.4761 14.2782 17.4761 9.67389" stroke="#ffffff" stroke-width="1.272" stroke-linecap="round"></path> <rect x="9.69302" y="2.85" width="4.0554" height="8.85156" rx="2.0277" stroke="#DF1463" stroke-width="1.272"></rect> </g><g id="SVGRepo_iconCarrier"> <path d="M7.40418 21.1847H11.7207M16.0373 21.1847H11.7207M11.7207 21.1847V15.4293M11.7207 15.4293C9.80226 15.4293 5.96533 14.2782 5.96533 9.67389M11.7207 15.4293C13.6392 15.4293 17.4761 14.2782 17.4761 9.67389" stroke="#ffffff" stroke-width="1.272" stroke-linecap="round"></path> <rect x="9.69302" y="2.85" width="4.0554" height="8.85156" rx="2.0277" stroke="#DF1463" stroke-width="1.272"></rect> </g></svg>